:SAMPLES-PER-SECOND 24
:FULLY-SPECIFIED
:DEGREES
57
root  3.65776 40.4323 6.44714 178.956 5.74786 178.42
RightUpLeg  -0.260081 -1.92691 -0.16168
RightLeg  7.96591 1.41975 1.90437
RightFoot  -2.7397 0.0601633 -1.04699
RightToes  -1.46215e-006 3.27826e-006 1.63871e-007
Spine  1.9427 1.10131 3.1671
Spine1  13.8913 1.45119 -0.74087
HEad  -8.33474 4.76689 -3.67725
LeftShoulder1  1.93583 -3.1187 -22.9515
LeftArm  7.89017 5.69419 -29.4924
LeftForeArm  -3.90624 -27.1455 -6.20609
LeftHand  -0.0644795 4.88227 11.1979
RightShoulder  3.09538 5.37889 28.9186
RightArm  9.87086 -11.4808 25.3031
RightForeArm  -4.19995 26.3027 6.03886
RightHand  -0.249549 -1.65064 -7.51748
LeftUpLeg  -1.0686 2.22327 1.36182
LeftLeg  10.1 12.5098 1.49984
LeftFoot  -3.09014 0.136272 -1.63261
LeftToes  1.24762e-006 1.46925e-008 1.29056e-009
58
root  3.87324 40.4556 6.47427 178.95 6.22025 178.309
RightUpLeg  -0.159462 -1.9224 -0.163912
RightLeg  7.70168 1.94824 2.2281
RightFoot  -2.68331 0.0102433 -0.376339
RightToes  -1.46215e-006 3.27826e-006 1.63871e-007
Spine  2.33529 1.11958 4.28877
Spine1  13.3935 1.73224 -1.50474
HEad  -8.78165 5.23117 -3.7731
LeftShoulder1  2.10204 -3.32449 -24.5828
LeftArm  9.80075 4.03556 -31.1161
LeftForeArm  -6.83676 -16.6274 -8.5409
LeftHand  0.102972 6.61365 11.6526
RightShoulder  3.31008 5.62511 30.3601
RightArm  5.46203 -11.118 28.1522
RightForeArm  -6.39516 18.1905 7.76397
RightHand  -0.331472 -1.72098 -10.408
LeftUpLeg  -1.36947 1.84771 -0.679028
LeftLeg  10.9785 6.36479 0.372674
LeftFoot  -4.77704 0.15678 -2.24612
LeftToes  1.24762e-006 1.46925e-008 1.29056e-009
59
root  4.0446 40.4839 6.43659 179.174 6.88995 178.533
RightUpLeg  0.0957787 -1.68207 0.0756412
RightLeg  6.8682 2.69714 2.58649
RightFoot  -2.57519 -0.077766 0.784071
RightToes  -1.46215e-006 3.27826e-006 1.63871e-007
Spine  2.0742 1.23999 5.00213
Spine1  13.3 1.82128 -1.43114
HEad  -9.04074 5.90114 -4.10827
LeftShoulder1  2.37928 -3.66201 -27.0995
LeftArm  1.98508 4.95075 -31.5558
LeftForeArm  -1.12183 -10.6953 -11.925
LeftHand  0.294226 8.27648 12.7694
RightShoulder  3.56498 5.87355 32.1355
RightArm  -1.97005 -12.5515 29.1223
RightForeArm  -5.56307 15.6012 9.71047
RightHand  -0.303265 -2.64283 -12.4927
LeftUpLeg  -1.17952 0.320554 -2.34023
LeftLeg  10.1767 5.43395 -0.0833415
LeftFoot  -5.71771 0.183578 -3.03158
LeftToes  1.24762e-006 1.46925e-008 1.29056e-009
60
root  4.18809 40.472 6.35775 179.384 7.66722 179.169
RightUpLeg  0.520144 -1.29269 0.73955
RightLeg  6.00508 3.42653 2.87909
RightFoot  -2.6406 -0.155848 1.81149
RightToes  -1.46215e-006 3.27826e-006 1.63871e-007
Spine  1.24808 1.43573 5.888
Spine1  13.9454 1.96729 -1.35136
HEad  -9.54627 6.36278 -3.7132
LeftShoulder1  2.59226 -3.88369 -29.0444
LeftArm  1.77747 7.12851 -32.8821
LeftForeArm  -3.37835 -10.1758 -12.3453
LeftHand  0.379007 8.74311 13.9092
RightShoulder  3.85087 6.11679 34.1425
RightArm  -0.375329 -14.1702 29.5363
RightForeArm  -9.55891 16.9626 9.09007
RightHand  -0.368266 -2.2341 -13.3108
LeftUpLeg  -0.383551 -1.41862 -3.25649
LeftLeg  7.992 7.37125 -0.233641
LeftFoot  -5.24045 0.128454 -1.81946
LeftToes  1.24762e-006 1.46925e-008 1.29056e-009
61
root  4.31201 40.4039 6.27699 179.648 8.14824 -179.826
RightUpLeg  0.763824 -0.861698 1.83691
RightLeg  5.54181 3.49262 3.1324
RightFoot  -2.89413 -0.196894 2.38713
RightToes  -1.46215e-006 3.27826e-006 1.63871e-007
Spine  0.0854227 1.42119 7.08963
Spine1  14.9239 1.94686 -1.54208
HEad  -9.84811 6.48887 -2.78962
LeftShoulder1  2.70747 -3.99366 -30.0854
LeftArm  9.33536 9.21484 -34.952
LeftForeArm  -10.4397 -12.8863 -11.9418
LeftHand  0.348204 8.23879 15.0047
RightShoulder  4.06585 6.2879 35.6192
RightArm  3.2167 -14.8343 30.4751
RightForeArm  -13.5855 17.9345 8.78506
RightHand  -0.45373 -1.74256 -14.3085
LeftUpLeg  0.308203 -2.57066 -3.30779
LeftLeg  6.15815 8.63118 0.0580502
LeftFoot  -4.44338 -0.0507358 1.30403
LeftToes  1.24762e-006 1.46925e-008 1.29056e-009
62
root  4.45038 40.3589 6.22774 179.797 7.87199 -179.21
RightUpLeg  1.00952 -0.474205 2.71073
RightLeg  5.12833 2.70506 3.16887
RightFoot  -2.99282 -0.197463 2.38764
RightToes  -1.46215e-006 3.27826e-006 1.63871e-007
Spine  -0.878153 1.20682 7.10156
Spine1  15.5988 1.49275 -1.04402
HEad  -9.61585 6.32913 -2.05756
LeftShoulder1  2.83605 -4.18853 -30.8521
LeftArm  20.373 10.1409 -37.4414
LeftForeArm  -16.9105 -15.7672 -11.0722
LeftHand  0.222782 7.21478 15.2388
RightShoulder  4.18303 6.39146 36.3517
RightArm  6.47281 -15.0018 32.1105
RightForeArm  -16.3939 18.044 9.01632
RightHand  -0.417545 -2.25032 -15.2065
LeftUpLeg  0.500434 -2.6742 -2.7695
LeftLeg  5.78496 8.67104 0.401632
LeftFoot  -4.4702 -0.116216 2.38014
LeftToes  1.24762e-006 1.46925e-008 1.29056e-009
63
root  4.59196 40.3727 6.21454 179.656 7.04414 -179.432
RightUpLeg  1.28432 -0.334376 2.82485
RightLeg  4.96811 1.76678 2.96456
RightFoot  -2.97451 -0.170515 1.9854
RightToes  -1.46215e-006 3.27826e-006 1.63871e-007
Spine  -1.35625 0.9396 5.85117
Spine1  15.8938 0.962621 -0.292532
HEad  -9.42097 5.98138 -1.34145
LeftShoulder1  2.93703 -4.38892 -31.2012
LeftArm  28.2639 9.54542 -40.4686
LeftForeArm  -18.6762 -16.4299 -11.1037
LeftHand  0.0378272 5.87705 12.7434
RightShoulder  4.28401 6.48603 36.9455
RightArm  8.33734 -14.8509 34.032
RightForeArm  -16.5486 17.4791 9.56795
RightHand  -0.41244 -2.13278 -14.5134
LeftUpLeg  0.626923 -2.40202 -2.50826
LeftLeg  5.79662 7.87391 0.154848
LeftFoot  -4.35098 -0.0409317 1.10516
LeftToes  1.24762e-006 1.46925e-008 1.29056e-009
64
root  4.65791 40.4046 6.20456 179.533 6.50453 -179.798
RightUpLeg  1.43096 -0.40551 2.5747
RightLeg  4.95162 1.48002 2.84241
RightFoot  -2.925 -0.16164 1.87426
RightToes  -1.46215e-006 3.27826e-006 1.63871e-007
Spine  -1.80495 0.811404 5.57675
Spine1  16.3293 1.00001 -0.841176
HEad  -9.4254 5.43988 -0.646072
LeftShoulder1  2.9436 -4.41578 -31.1575
LeftArm  34.0675 8.12147 -43.4655
LeftForeArm  -18.8963 -16.3779 -11.4734
LeftHand  -0.00955694 5.47119 11.3319
RightShoulder  4.36242 6.55082 37.434
RightArm  9.27094 -14.4657 36.2251
RightForeArm  -15.5195 16.8337 10.0649
RightHand  -0.542956 -1.26608 -15.1973
LeftUpLeg  0.994361 -2.58314 -2.76357
LeftLeg  5.12483 7.41484 -0.107859
LeftFoot  -3.61546 -0.0335426 0.819693
LeftToes  1.24762e-006 1.46925e-008 1.29056e-009
65
root  4.65408 40.4241 6.17744 179.63 6.56808 -179.815
RightUpLeg  1.57195 -0.29659 2.60647
RightLeg  4.50438 1.41854 2.74507
RightFoot  -2.67664 -0.15198 1.76776
RightToes  -1.46215e-006 3.27826e-006 1.63871e-007
Spine  -2.40594 0.969071 6.46707
Spine1  16.8619 1.54053 -2.14502
HEad  -9.20077 4.84767 -0.285174
LeftShoulder1  2.91912 -4.37838 -31.022
LeftArm  38.9693 7.19159 -45.6042
LeftForeArm  -20.6458 -17.3008 -10.9465
LeftHand  0.186907 6.91813 15.3702
RightShoulder  4.35726 6.54894 37.3921
RightArm  10.3454 -14.2283 38.1453
RightForeArm  -14.4873 16.744 10.0954
RightHand  -0.729375 -0.959967 -19.0224
LeftUpLeg  1.35989 -2.82642 -2.91769
LeftLeg  4.23267 7.93403 -0.0721274
LeftFoot  -3.13134 -0.0767992 1.33449
LeftToes  1.24762e-006 1.46925e-008 1.29056e-009
66
root  4.65837 40.4182 6.15804 179.795 6.70155 -179.781
RightUpLeg  1.54677 0.109367 2.95237
RightLeg  4.19436 0.804372 2.38003
RightFoot  -2.42666 -0.089882 0.941086
RightToes  -1.46215e-006 3.27826e-006 1.63871e-007
Spine  -2.6855 1.18624 6.67991
Spine1  16.8671 1.88494 -2.57935
HEad  -9.0638 4.55043 -0.17385
LeftShoulder1  2.90584 -4.41451 -30.6822
LeftArm  40.5756 7.37781 -46.4979
LeftForeArm  -22.4803 -18.2816 -10.181
LeftHand  0.381587 7.72378 19.5614
RightShoulder  4.29911 6.50846 36.9986
RightArm  11.1413 -14.0087 38.6814
RightForeArm  -12.8679 16.6003 10.1301
RightHand  -0.844967 -0.784948 -21.2042
LeftUpLeg  1.38671 -2.68481 -2.78005
LeftLeg  3.89191 8.1618 -0.193203
LeftFoot  -3.01171 -0.0614054 1.0285
LeftToes  1.24762e-006 1.46925e-008 1.29056e-009
67
root  4.65974 40.4014 6.15909 179.887 6.48393 -179.769
RightUpLeg  1.30948 0.416218 3.22958
RightLeg  4.44313 0.0611355 2.05314
RightFoot  -2.40362 -0.0329245 0.211519
RightToes  -1.46215e-006 3.27826e-006 1.63871e-007
Spine  -2.49885 1.15599 6.21257
Spine1  16.3713 1.75394 -2.2315
HEad  -9.36298 4.54125 -0.329172
LeftShoulder1  2.88904 -4.41466 -30.4669
LeftArm  41.2174 7.92202 -46.0012
LeftForeArm  -23.8945 -19.0066 -9.59346
LeftHand  0.238034 7.02436 17.7156
RightShoulder  4.256 6.47766 36.7077
RightArm  12.127 -13.7099 37.9814
RightForeArm  -12.5533 16.4537 10.2877
RightHand  -0.840196 -0.393987 -19.4597
LeftUpLeg  1.23541 -2.55449 -2.66605
LeftLeg  3.90298 7.63947 -0.369574
LeftFoot  -2.78247 -0.0423715 0.712129
LeftToes  1.24762e-006 1.46925e-008 1.29056e-009
68
root  4.62406 40.4074 6.15658 179.861 6.10504 -179.643
RightUpLeg  1.39312 0.45118 3.31889
RightLeg  4.35685 -0.352412 2.05812
RightFoot  -2.2844 -0.0243579 0.111244
RightToes  -1.46215e-006 3.27826e-006 1.63871e-007
Spine  -2.19862 1.04963 6.05153
Spine1  15.9573 1.56077 -1.98087
HEad  -9.52295 4.57944 -0.77559
LeftShoulder1  2.88146 -4.38714 -30.4981
LeftArm  43.3599 7.96295 -45.0541
LeftForeArm  -25.0578 -19.5707 -9.18593
LeftHand  0.15959 6.80241 14.5374
RightShoulder  4.23797 6.46895 36.5679
RightArm  12.7424 -13.4458 37.2563
RightForeArm  -13.0563 16.2311 10.5374
RightHand  -0.763916 -0.4767 -18.0054
LeftUpLeg  1.36145 -2.53423 -2.59097
LeftLeg  3.64979 7.34961 -0.405022
LeftFoot  -2.5158 -0.053264 0.874239
LeftToes  1.24762e-006 1.46925e-008 1.29056e-009
